<svg xmlns="http://www.w3.org/2000/svg" height="40px" viewBox="0 -960 960 960" width="40px" fill="#000000"><path d="M683-190h34q14 0 23-9t9-23v-504q0-14-9-23t-23-9h-34q-14 0-23 9t-9 23v504q0 14 9 23t23 9ZM317.83-423.25q7.17-7.25 7.17-16.83 0-9.59-7.25-16.75-7.25-7.17-16.83-7.17-9.59 0-16.75 7.25-7.17 7.25-7.17 16.83 0 9.59 7.25 16.75 7.25 7.17 16.83 7.17 9.59 0 16.75-7.25Zm0 120q7.17-7.25 7.17-16.83 0-9.59-7.25-16.75-7.25-7.17-16.83-7.17-9.59 0-16.75 7.25-7.17 7.25-7.17 16.83 0 9.59 7.25 16.75 7.25 7.17 16.83 7.17 9.59 0 16.75-7.25ZM277-548h288v-104H277v104Zm160.83 124.75q7.17-7.25 7.17-16.83 0-9.59-7.25-16.75-7.25-7.17-16.83-7.17-9.59 0-16.75 7.25-7.17 7.25-7.17 16.83 0 9.59 7.25 16.75 7.25 7.17 16.83 7.17 9.59 0 16.75-7.25Zm0 120q7.17-7.25 7.17-16.83 0-9.59-7.25-16.75-7.25-7.17-16.83-7.17-9.59 0-16.75 7.25-7.17 7.25-7.17 16.83 0 9.59 7.25 16.75 7.25 7.17 16.83 7.17 9.59 0 16.75-7.25Zm120-120q7.17-7.25 7.17-16.83 0-9.59-7.25-16.75-7.25-7.17-16.83-7.17-9.59 0-16.75 7.25-7.17 7.25-7.17 16.83 0 9.59 7.25 16.75 7.25 7.17 16.83 7.17 9.59 0 16.75-7.25Zm0 120q7.17-7.25 7.17-16.83 0-9.59-7.25-16.75-7.25-7.17-16.83-7.17-9.59 0-16.75 7.25-7.17 7.25-7.17 16.83 0 9.59 7.25 16.75 7.25 7.17 16.83 7.17 9.59 0 16.75-7.25ZM627-230v-488H243q-14 0-23 9t-9 23v424q0 14 9 23t23 9h384Zm56 64q-19.71 0-34.69-11.5-14.98-11.5-19.64-28.5H243q-22.58 0-39.29-16.71T187-262v-424q0-22.58 16.71-39.29T243-742h385.67q4.66-17 19.64-28.5T683-782h34q22.58 0 39.29 16.71T773-726v504q0 22.58-16.71 39.29T717-166h-34Zm-472-64v-488 488Z"/></svg>