<?xml version="1.0" encoding="utf-8"?>
<!-- Generator: Adobe Illustrator 28.0.0, SVG Export Plug-In . SVG Version: 6.00 Build 0)  -->
<svg version="1.1" id="Layer_1" xmlns="http://www.w3.org/2000/svg" xmlns:xlink="http://www.w3.org/1999/xlink" x="0px" y="0px"
	 viewBox="0 0 800 800" style="enable-background:new 0 0 800 800;" xml:space="preserve">
<style type="text/css">
	.st0{fill:#FFFFFF;}
</style>
<path class="st0" d="M75,737.5c-6.9,0-12.5-5.6-12.5-12.5c0-1.4,0.2-2.7,0.7-4l49.4-145.2c-79.9-133-59.3-303.2,50-413.2
	c131.3-130.8,343.7-130.8,475,0l0,0c130.6,132.4,129,345.7-3.4,476.2c-100.9,99.5-253.4,125.2-381.3,64.2L77.5,737.5H75z
	 M254.4,676.9c2,0,3.9,0.5,5.6,1.4c154.1,76.9,341.3,14.2,418.1-139.8c59.7-119.6,36.4-263.9-57.7-358.8l0,0
	c-121.7-121.7-319-121.7-440.7,0c0,0,0,0,0,0C77.1,283.2,59.5,443.8,137.1,567.1c2,3.2,2.5,7.2,1.2,10.8L93.9,709l158.2-31.5
	L254.4,676.9z"/>
<path class="st0" d="M489.6,575c-3.8,0.2-7.7,0.2-11.5,0c-66.4-7.2-150-72.9-173.6-96l0,0c-23.1-23.1-88.9-107.2-96-173.6
	c-5.7-53,29.6-89,45.1-102.1c6.9-6,15.9-9,25-8.6l33.8,1.1c5,0.2,9.5,3.4,11.2,8.1c7.5,19.9,31.7,86,31.7,103.1
	c0,15-13.2,26.6-25,36.9c-2.5,2.1-5.9,5.1-7.9,7.2c12.6,23.1,27.8,44.7,45.1,64.5c19.8,17.4,41.4,32.5,64.5,45.1
	c2.1-2.1,5.1-5.5,7.3-7.9c10.2-11.8,21.9-25,37.5-25c17.1,0,83.2,24.2,103.1,31.8c4.7,1.8,7.9,6.2,8.1,11.3l1.1,33.8
	c0.3,9.1-2.8,18-8.6,25C558.3,557.2,525.1,573.7,489.6,575z M322.2,461c20.6,20.6,100,82.5,158.6,88.9c41.1,4.4,69.9-24,80.4-36.4
	c1.9-2.3,2.9-5.3,2.8-8.2l-0.9-25c-28.1-11.3-57-20.4-86.5-27.2c-4,0-13.9,11.6-18.1,16.5c-8.5,9.7-15.3,17.4-25,17.4
	c-15.9,0-71.3-41-83.6-53.4c-12.4-12.4-53-68.1-53-83.5c0-9.4,7.6-16.1,17.4-25c4.7-4.2,16.1-14,16.5-18.1
	c-6.9-29.5-16-58.4-27.2-86.5l-25-0.9c-3-0.1-5.9,0.9-8.2,2.7c-12.5,10.5-40.9,39.2-36.4,80.3c6.4,59,68.2,137.5,88.9,158.6
	L322.2,461z"/>
</svg>
